<svg width="60" height="60" viewBox="0 0 60 60" fill="none" xmlns="http://www.w3.org/2000/svg">
<path d="M6.65777 2.16068C6.60269 2.16009 6.54785 2.16232 6.49289 2.16419C6.41953 2.16693 6.34629 2.17185 6.27316 2.17896C5.39801 2.26334 4.55262 2.66505 3.65871 3.48267C2.48859 4.55236 2.15133 5.5522 2.32195 6.73088C2.49246 7.90931 3.30082 9.33666 4.79754 10.8214C5.13679 11.158 5.51543 11.4937 5.92172 11.8322C6.07054 11.9558 6.2223 12.0818 6.37957 12.2055C6.51274 12.3107 6.64704 12.4145 6.78246 12.5168C6.80965 12.5373 6.83566 12.5587 6.86308 12.5791C8.75508 13.9898 11.1982 15.3844 14.0918 16.6664C32.8093 35.5699 47.9373 51.5359 57.9895 57.9309C52.0001 47.8969 36.0248 32.7801 16.9739 13.9234C15.7751 11.1341 14.4995 8.80111 13.2129 6.97627C17.3684 5.78212 22.8828 6.70744 27.9492 11.7739C32.6652 16.4898 34.1182 22.4117 32.7978 26.8141C33.3709 27.39 33.956 27.9758 34.5191 28.5426C36.7539 23.1403 35.055 15.7815 29.4983 10.2247C25.3154 6.04193 20.653 4.32736 16.4868 4.33955C16.3523 4.34013 16.2172 4.34306 16.0839 4.34705C13.524 4.42322 11.167 5.15541 9.24668 6.36115C8.91089 6.57196 8.5858 6.79935 8.27262 7.04248C8.42847 7.40505 8.59582 7.73201 8.78894 8.00552C9.01394 8.32427 9.25816 8.58396 9.59824 8.78927C9.85629 8.58806 10.1253 8.39377 10.4113 8.21435C10.5366 8.1347 10.6636 8.05773 10.7921 7.98349C11.7526 9.16568 12.6045 10.8691 13.7769 13.5206C10.9753 12.2822 9.22746 11.4065 8.03086 10.3565C8.03367 10.353 8.03554 10.3492 8.03836 10.3456C7.98762 10.307 7.93676 10.2689 7.88836 10.2285C7.88695 10.2274 7.88566 10.2263 7.88449 10.2249C6.57023 9.00912 5.94715 7.53736 5.27004 5.01009C5.97176 5.19818 6.5891 5.38392 7.14504 5.57775C8.11815 4.84017 9.17223 4.21602 10.2868 3.7174C9.17355 2.8106 8.11277 2.31935 7.15957 2.19748C6.99047 2.1758 6.82324 2.1622 6.65777 2.16068ZM57.8062 7.5438C48.6674 7.5438 43.089 10.9289 40.6823 15.6773C38.2757 20.4258 39.0424 26.2699 41.8177 31.0766C43.1518 33.3875 43.9044 35.8446 44.0661 38.2508C44.7899 38.9981 45.5114 39.7476 46.2306 40.4993C46.5013 36.9889 45.6362 33.3098 43.7146 29.9817C41.2384 25.6924 40.6495 20.5936 42.6381 16.6699C44.6266 12.7462 49.1936 9.7338 57.8065 9.7338V7.54404L57.8062 7.5438ZM4.44222 13.4693C4.10308 16.273 5.16644 19.3533 7.90301 22.0898L9.45199 20.5444C7.58051 18.6729 6.73465 16.8139 6.58828 15.0842C5.80945 14.5557 5.09367 14.0176 4.44211 13.4692L4.44222 13.4693ZM14.5385 32.4609C11.6714 32.4576 9.26039 33.0375 7.34988 34.0612C4.43871 35.621 2.73703 38.2642 2.57449 41.1476C2.24871 46.914 7.77527 53.1769 19.0282 55.0085C30.938 56.9472 38.9856 53.9322 43.0992 48.6731C43.2174 48.5221 43.3323 48.3695 43.4437 48.2154C42.9103 47.7194 42.3717 47.2169 41.8286 46.7066C41.6841 46.9163 41.5332 47.1226 41.3745 47.3253C37.8623 51.8154 30.786 54.7046 19.3799 52.8479C8.78683 51.1235 4.52097 45.5205 4.76074 41.2718C4.88062 39.1475 6.04769 37.244 8.38629 35.9911C10.7248 34.7381 14.277 34.1906 18.9918 35.1157C22.9852 35.8997 26.3673 35.5223 29.0039 34.3029C28.4508 33.7579 27.8918 33.2095 27.3305 32.6547C25.2744 33.4108 22.6559 33.6026 19.4128 32.966C17.6673 32.6235 16.0404 32.4624 14.5385 32.4607V32.4609Z" fill="#FF7640"/>
</svg>
